<?xml version="1.0" encoding="UTF-8" standalone="no"?>
<!-- Created with Inkscape (http://www.inkscape.org/) -->

<svg
   xmlns:dc="http://purl.org/dc/elements/1.1/"
   xmlns:cc="http://creativecommons.org/ns#"
   xmlns:rdf="http://www.w3.org/1999/02/22-rdf-syntax-ns#"
   xmlns:svg="http://www.w3.org/2000/svg"
   xmlns="http://www.w3.org/2000/svg"
   xmlns:xlink="http://www.w3.org/1999/xlink"
   xmlns:sodipodi="http://sodipodi.sourceforge.net/DTD/sodipodi-0.dtd"
   xmlns:inkscape="http://www.inkscape.org/namespaces/inkscape"
   width="393.51358"
   height="325.85062"
   id="svg28950"
   version="1.1"
   inkscape:version="0.48.2 r9819"
   sodipodi:docname="efficient frontier.svg">
  <defs
     id="defs28952">
    <marker
       inkscape:stockid="Arrow1Lend"
       orient="auto"
       refY="0"
       refX="0"
       id="Arrow1Lend"
       style="overflow:visible">
      <path
         id="path29475"
         d="M 0,0 5,-5 -12.5,0 5,5 0,0 z"
         style="fill-rule:evenodd;stroke:#000000;stroke-width:1pt;marker-start:none"
         transform="matrix(-0.8,0,0,-0.8,-10,0)"
         inkscape:connector-curvature="0" />
    </marker>
    <marker
       inkscape:stockid="Arrow1Lstart"
       orient="auto"
       refY="0"
       refX="0"
       id="Arrow1Lstart"
       style="overflow:visible">
      <path
         id="path29472"
         d="M 0,0 5,-5 -12.5,0 5,5 0,0 z"
         style="fill-rule:evenodd;stroke:#000000;stroke-width:1pt;marker-start:none"
         transform="matrix(0.8,0,0,0.8,10,0)"
         inkscape:connector-curvature="0" />
    </marker>
  </defs>
  <sodipodi:namedview
     id="base"
     pagecolor="#000000"
     bordercolor="#666666"
     borderopacity="1.0"
     inkscape:pageopacity="0"
     inkscape:pageshadow="2"
     inkscape:zoom="1.23"
     inkscape:cx="136.94875"
     inkscape:cy="158.83465"
     inkscape:document-units="px"
     inkscape:current-layer="layer1"
     showgrid="false"
     inkscape:window-width="1267"
     inkscape:window-height="797"
     inkscape:window-x="20"
     inkscape:window-y="20"
     inkscape:window-maximized="0"
     fit-margin-top="10"
     fit-margin-left="10"
     fit-margin-right="10"
     fit-margin-bottom="10" />
  <metadata
     id="metadata28955">
    <rdf:RDF>
      <cc:Work
         rdf:about="">
        <dc:format>image/svg+xml</dc:format>
        <dc:type
           rdf:resource="http://purl.org/dc/dcmitype/StillImage" />
        <dc:title />
      </cc:Work>
    </rdf:RDF>
  </metadata>
  <g
     inkscape:label="Layer 1"
     inkscape:groupmode="layer"
     id="layer1"
     transform="translate(-46.002373,-664.59432)">
    <g
       id="g31114"
       transform="translate(0.28820178,23.225232)">
      <path
         sodipodi:nodetypes="cc"
         inkscape:connector-curvature="0"
         id="path30509"
         d="M 103.94736,902.36217 C 121.71052,799.7306 205.26316,743.15165 373.68421,739.20428"
         style="fill:none;stroke:#53d3ff;stroke-width:1px;stroke-linecap:butt;stroke-linejoin:miter;stroke-opacity:1" />
      <path
         sodipodi:nodetypes="ccc"
         inkscape:connector-curvature="0"
         id="rect28958"
         d="M 428.89096,355.46992 80,355.46992 80,102.85714"
         style="fill:none;stroke:#c5c5c5;stroke-width:3;stroke-linecap:butt;stroke-linejoin:miter;stroke-miterlimit:4;stroke-opacity:1;stroke-dasharray:none;stroke-dashoffset:0;marker-start:none;marker-end:none"
         transform="translate(0,572.36218)" />
      <text
         transform="matrix(0,-1,1,0,0,0)"
         sodipodi:linespacing="125%"
         id="text30467"
         y="72.71331"
         x="-805.63153"
         style="font-size:16px;font-style:normal;font-variant:normal;font-weight:normal;font-stretch:normal;line-height:125%;letter-spacing:0px;word-spacing:0px;fill:#000000;fill-opacity:1;stroke:none;font-family:Baskerville;-inkscape-font-specification:Baskerville"
         xml:space="preserve"><tspan
           style="font-size:16px;fill:#ffffff;fill-opacity:1"
           y="72.71331"
           x="-805.63153"
           id="tspan30469"
           sodipodi:role="line">return</tspan></text>
      <text
         sodipodi:linespacing="125%"
         id="text30471"
         y="945.99377"
         x="318.81577"
         style="font-size:16px;font-style:normal;font-variant:normal;font-weight:normal;font-stretch:normal;line-height:125%;letter-spacing:0px;word-spacing:0px;fill:#ffffff;fill-opacity:1;stroke:none;font-family:Baskerville;-inkscape-font-specification:Baskerville"
         xml:space="preserve"><tspan
           y="945.99377"
           x="318.81577"
           id="tspan30473"
           sodipodi:role="line">risk</tspan></text>
      <path
         transform="translate(0,572.36218)"
         d="m 176.97368,297.10526 c 0,1.81672 -1.47275,3.28947 -3.28948,3.28947 -1.81672,0 -3.28947,-1.47275 -3.28947,-3.28947 0,-1.81673 1.47275,-3.28948 3.28947,-3.28948 1.81673,0 3.28948,1.47275 3.28948,3.28948 z"
         sodipodi:ry="3.2894738"
         sodipodi:rx="3.2894738"
         sodipodi:cy="297.10526"
         sodipodi:cx="173.6842"
         id="path30477"
         style="fill:#82ffd2;fill-opacity:1;fill-rule:nonzero;stroke:none"
         sodipodi:type="arc" />
      <path
         sodipodi:type="arc"
         style="fill:#82ffd2;fill-opacity:1;fill-rule:nonzero;stroke:none"
         id="path30479"
         sodipodi:cx="173.6842"
         sodipodi:cy="297.10526"
         sodipodi:rx="3.2894738"
         sodipodi:ry="3.2894738"
         d="m 176.97368,297.10526 c 0,1.81672 -1.47275,3.28947 -3.28948,3.28947 -1.81672,0 -3.28947,-1.47275 -3.28947,-3.28947 0,-1.81673 1.47275,-3.28948 3.28947,-3.28948 1.81673,0 3.28948,1.47275 3.28948,3.28948 z"
         transform="translate(11.842101,528.28323)" />
      <path
         transform="translate(50.65789,590.12534)"
         d="m 176.97368,297.10526 c 0,1.81672 -1.47275,3.28947 -3.28948,3.28947 -1.81672,0 -3.28947,-1.47275 -3.28947,-3.28947 0,-1.81673 1.47275,-3.28948 3.28947,-3.28948 1.81673,0 3.28948,1.47275 3.28948,3.28948 z"
         sodipodi:ry="3.2894738"
         sodipodi:rx="3.2894738"
         sodipodi:cy="297.10526"
         sodipodi:cx="173.6842"
         id="path30481"
         style="fill:#82ffd2;fill-opacity:1;fill-rule:nonzero;stroke:none"
         sodipodi:type="arc" />
      <path
         sodipodi:type="arc"
         style="fill:#82ffd2;fill-opacity:1;fill-rule:nonzero;stroke:none"
         id="path30483"
         sodipodi:cx="173.6842"
         sodipodi:cy="297.10526"
         sodipodi:rx="3.2894738"
         sodipodi:ry="3.2894738"
         d="m 176.97368,297.10526 c 0,1.81672 -1.47275,3.28947 -3.28948,3.28947 -1.81672,0 -3.28947,-1.47275 -3.28947,-3.28947 0,-1.81673 1.47275,-3.28948 3.28947,-3.28948 1.81673,0 3.28948,1.47275 3.28948,3.28948 z"
         transform="translate(64.473679,521.70429)" />
      <path
         transform="translate(167.76315,521.70429)"
         d="m 176.97368,297.10526 c 0,1.81672 -1.47275,3.28947 -3.28948,3.28947 -1.81672,0 -3.28947,-1.47275 -3.28947,-3.28947 0,-1.81673 1.47275,-3.28948 3.28947,-3.28948 1.81673,0 3.28948,1.47275 3.28948,3.28948 z"
         sodipodi:ry="3.2894738"
         sodipodi:rx="3.2894738"
         sodipodi:cy="297.10526"
         sodipodi:cx="173.6842"
         id="path30485"
         style="fill:#82ffd2;fill-opacity:1;fill-rule:nonzero;stroke:none"
         sodipodi:type="arc" />
      <path
         sodipodi:type="arc"
         style="fill:#82ffd2;fill-opacity:1;fill-rule:nonzero;stroke:none"
         id="path30487"
         sodipodi:cx="173.6842"
         sodipodi:cy="297.10526"
         sodipodi:rx="3.2894738"
         sodipodi:ry="3.2894738"
         d="m 176.97368,297.10526 c 0,1.81672 -1.47275,3.28947 -3.28948,3.28947 -1.81672,0 -3.28947,-1.47275 -3.28947,-3.28947 0,-1.81673 1.47275,-3.28948 3.28947,-3.28948 1.81673,0 3.28948,1.47275 3.28948,3.28948 z"
         transform="translate(109.86841,517.75692)" />
      <path
         transform="translate(60.526305,551.96745)"
         d="m 176.97368,297.10526 c 0,1.81672 -1.47275,3.28947 -3.28948,3.28947 -1.81672,0 -3.28947,-1.47275 -3.28947,-3.28947 0,-1.81673 1.47275,-3.28948 3.28947,-3.28948 1.81673,0 3.28948,1.47275 3.28948,3.28948 z"
         sodipodi:ry="3.2894738"
         sodipodi:rx="3.2894738"
         sodipodi:cy="297.10526"
         sodipodi:cx="173.6842"
         id="path30489"
         style="fill:#82ffd2;fill-opacity:1;fill-rule:nonzero;stroke:none"
         sodipodi:type="arc" />
      <path
         sodipodi:type="arc"
         style="fill:#82ffd2;fill-opacity:1;fill-rule:nonzero;stroke:none"
         id="path30491"
         sodipodi:cx="173.6842"
         sodipodi:cy="297.10526"
         sodipodi:rx="3.2894738"
         sodipodi:ry="3.2894738"
         d="m 176.97368,297.10526 c 0,1.81672 -1.47275,3.28947 -3.28948,3.28947 -1.81672,0 -3.28947,-1.47275 -3.28947,-3.28947 0,-1.81673 1.47275,-3.28948 3.28947,-3.28948 1.81673,0 3.28948,1.47275 3.28948,3.28948 z"
         transform="translate(146.05262,574.99377)" />
      <path
         transform="translate(113.81578,485.52009)"
         d="m 176.97368,297.10526 c 0,1.81672 -1.47275,3.28947 -3.28948,3.28947 -1.81672,0 -3.28947,-1.47275 -3.28947,-3.28947 0,-1.81673 1.47275,-3.28948 3.28947,-3.28948 1.81673,0 3.28948,1.47275 3.28948,3.28948 z"
         sodipodi:ry="3.2894738"
         sodipodi:rx="3.2894738"
         sodipodi:cy="297.10526"
         sodipodi:cx="173.6842"
         id="path30493"
         style="fill:#82ffd2;fill-opacity:1;fill-rule:nonzero;stroke:none"
         sodipodi:type="arc" />
      <path
         sodipodi:type="arc"
         style="fill:#82ffd2;fill-opacity:1;fill-rule:nonzero;stroke:none"
         id="path30495"
         sodipodi:cx="173.6842"
         sodipodi:cy="297.10526"
         sodipodi:rx="3.2894738"
         sodipodi:ry="3.2894738"
         d="m 176.97368,297.10526 c 0,1.81672 -1.47275,3.28947 -3.28948,3.28947 -1.81672,0 -3.28947,-1.47275 -3.28947,-3.28947 0,-1.81673 1.47275,-3.28948 3.28947,-3.28948 1.81673,0 3.28948,1.47275 3.28948,3.28948 z"
         transform="translate(4.6052537,488.80956)" />
      <path
         transform="translate(-47.368431,551.96745)"
         d="m 176.97368,297.10526 c 0,1.81672 -1.47275,3.28947 -3.28948,3.28947 -1.81672,0 -3.28947,-1.47275 -3.28947,-3.28947 0,-1.81673 1.47275,-3.28948 3.28947,-3.28948 1.81673,0 3.28948,1.47275 3.28948,3.28948 z"
         sodipodi:ry="3.2894738"
         sodipodi:rx="3.2894738"
         sodipodi:cy="297.10526"
         sodipodi:cx="173.6842"
         id="path30497"
         style="fill:#82ffd2;fill-opacity:1;fill-rule:nonzero;stroke:none"
         sodipodi:type="arc" />
      <path
         sodipodi:type="arc"
         style="fill:#82ffd2;fill-opacity:1;fill-rule:nonzero;stroke:none"
         id="path30499"
         sodipodi:cx="173.6842"
         sodipodi:cy="297.10526"
         sodipodi:rx="3.2894738"
         sodipodi:ry="3.2894738"
         d="m 176.97368,297.10526 c 0,1.81672 -1.47275,3.28947 -3.28948,3.28947 -1.81672,0 -3.28947,-1.47275 -3.28947,-3.28947 0,-1.81673 1.47275,-3.28948 3.28947,-3.28948 1.81673,0 3.28948,1.47275 3.28948,3.28948 z"
         transform="translate(-26.315799,513.15166)" />
      <path
         transform="translate(86.184201,457.8885)"
         d="m 176.97368,297.10526 c 0,1.81672 -1.47275,3.28947 -3.28948,3.28947 -1.81672,0 -3.28947,-1.47275 -3.28947,-3.28947 0,-1.81673 1.47275,-3.28948 3.28947,-3.28948 1.81673,0 3.28948,1.47275 3.28948,3.28948 z"
         sodipodi:ry="3.2894738"
         sodipodi:rx="3.2894738"
         sodipodi:cy="297.10526"
         sodipodi:cx="173.6842"
         id="path30501"
         style="fill:#82ffd2;fill-opacity:1;fill-rule:nonzero;stroke:none"
         sodipodi:type="arc" />
      <path
         sodipodi:type="arc"
         style="fill:#82ffd2;fill-opacity:1;fill-rule:nonzero;stroke:none"
         id="path30503"
         sodipodi:cx="173.6842"
         sodipodi:cy="297.10526"
         sodipodi:rx="3.2894738"
         sodipodi:ry="3.2894738"
         d="m 176.97368,297.10526 c 0,1.81672 -1.47275,3.28947 -3.28948,3.28947 -1.81672,0 -3.28947,-1.47275 -3.28947,-3.28947 0,-1.81673 1.47275,-3.28948 3.28947,-3.28948 1.81673,0 3.28948,1.47275 3.28948,3.28948 z"
         transform="translate(201.31578,551.30956)" />
      <path
         transform="translate(190.78946,478.94114)"
         d="m 176.97368,297.10526 c 0,1.81672 -1.47275,3.28947 -3.28948,3.28947 -1.81672,0 -3.28947,-1.47275 -3.28947,-3.28947 0,-1.81673 1.47275,-3.28948 3.28947,-3.28948 1.81673,0 3.28948,1.47275 3.28948,3.28948 z"
         sodipodi:ry="3.2894738"
         sodipodi:rx="3.2894738"
         sodipodi:cy="297.10526"
         sodipodi:cx="173.6842"
         id="path30505"
         style="fill:#82ffd2;fill-opacity:1;fill-rule:nonzero;stroke:none"
         sodipodi:type="arc" />
      <path
         sodipodi:type="arc"
         style="fill:#82ffd2;fill-opacity:1;fill-rule:nonzero;stroke:none"
         id="path30507"
         sodipodi:cx="173.6842"
         sodipodi:cy="297.10526"
         sodipodi:rx="3.2894738"
         sodipodi:ry="3.2894738"
         d="m 176.97368,297.10526 c 0,1.81672 -1.47275,3.28947 -3.28948,3.28947 -1.81672,0 -3.28947,-1.47275 -3.28947,-3.28947 0,-1.81673 1.47275,-3.28948 3.28947,-3.28948 1.81673,0 3.28948,1.47275 3.28948,3.28948 z"
         transform="translate(180.26314,444.73061)" />
      <text
         transform="translate(-2,-6)"
         sodipodi:linespacing="125%"
         id="text30511"
         style="font-size:12px;font-style:normal;font-variant:normal;font-weight:normal;font-stretch:normal;line-height:125%;letter-spacing:0px;word-spacing:0px;fill:#53d3ff;fill-opacity:1;stroke:none;font-family:Baskerville;-inkscape-font-specification:Baskerville"
         xml:space="preserve"><textPath
           id="textPath30536"
           xlink:href="#path30509"><tspan
   style="font-size:12px;fill:#53d3ff;fill-opacity:1"
   id="tspan30513">                                        efficient frontier</tspan></textPath></text>
      <text
         sodipodi:linespacing="125%"
         id="text30511-4"
         y="843.13458"
         x="253.54442"
         style="font-size:12px;font-style:normal;font-variant:normal;font-weight:normal;font-stretch:normal;line-height:125%;letter-spacing:0px;word-spacing:0px;fill:#82ffd2;fill-opacity:1;stroke:none;font-family:Baskerville;-inkscape-font-specification:Baskerville"
         xml:space="preserve"><tspan
           y="843.13458"
           x="253.54442"
           id="tspan30513-6"
           sodipodi:role="line">portfolios</tspan></text>
    </g>
  </g>
</svg>
